<svg width="50" height="50" viewBox="0 0 50 50" fill="none" xmlns="http://www.w3.org/2000/svg">
<path d="M25 4.16663C27.7359 4.16663 30.445 4.7055 32.9726 5.75247C35.5002 6.79944 37.7968 8.33401 39.7314 10.2686C41.666 12.2031 43.2005 14.4998 44.2475 17.0274C45.2945 19.555 45.8333 22.2641 45.8333 25C45.8333 30.5253 43.6384 35.8243 39.7314 39.7314C35.8244 43.6384 30.5254 45.8333 25 45.8333C22.2641 45.8333 19.5551 45.2944 17.0274 44.2475C14.4998 43.2005 12.2032 41.6659 10.2686 39.7314C6.36161 35.8243 4.16667 30.5253 4.16667 25C4.16667 19.4746 6.36161 14.1756 10.2686 10.2686C14.1756 6.36156 19.4747 4.16663 25 4.16663ZM25 8.33329C16.5 8.33329 9.47917 14.6875 8.45834 22.9166H16.9375C17.8542 19.3125 21.125 16.6666 25 16.6666C28.875 16.6666 32.1458 19.3125 33.0625 22.9166H41.5417C40.5208 14.6875 33.5 8.33329 25 8.33329ZM25 41.6666C33.5 41.6666 40.5208 35.3125 41.5417 27.0833H33.0625C32.1458 30.6875 28.875 33.3333 25 33.3333C21.125 33.3333 17.8542 30.6875 16.9375 27.0833H8.45834C9.47917 35.3125 16.5 41.6666 25 41.6666ZM25 20.8333C23.8949 20.8333 22.8351 21.2723 22.0537 22.0537C21.2723 22.8351 20.8333 23.8949 20.8333 25C20.8333 26.105 21.2723 27.1648 22.0537 27.9462C22.8351 28.7276 23.8949 29.1666 25 29.1666C26.1051 29.1666 27.1649 28.7276 27.9463 27.9462C28.7277 27.1648 29.1667 26.105 29.1667 25C29.1667 23.8949 28.7277 22.8351 27.9463 22.0537C27.1649 21.2723 26.1051 20.8333 25 20.8333Z" fill="currentColor"/>
</svg>
