<svg width="50" height="50" viewBox="0 0 50 50" fill="none" xmlns="http://www.w3.org/2000/svg">
<path d="M30.2083 25C30.2083 26.3813 29.6596 27.7061 28.6829 28.6828C27.7061 29.6596 26.3813 30.2083 25 30.2083C23.6187 30.2083 22.2939 29.6596 21.3172 28.6828C20.3404 27.7061 19.7917 26.3813 19.7917 25C19.7917 23.6186 20.3404 22.2939 21.3172 21.3171C22.2939 20.3404 23.6187 19.7916 25 19.7916C26.3813 19.7916 27.7061 20.3404 28.6829 21.3171C29.6596 22.2939 30.2083 23.6186 30.2083 25ZM45.8333 25C45.8333 36.5 36.5 45.8333 25 45.8333C13.5 45.8333 4.16667 36.5 4.16667 25C4.16667 13.5 13.5 4.16663 25 4.16663C36.5 4.16663 45.8333 13.5 45.8333 25ZM41.6667 25H33.3333C33.3333 20.3958 29.6042 16.6666 25 16.6666C20.3958 16.6666 16.6667 20.3958 16.6667 25H8.33333C8.33333 34.1875 15.8125 41.6666 25 41.6666C34.1875 41.6666 41.6667 34.1875 41.6667 25Z" fill="currentColor"/>
</svg>
