<svg width="13" height="12" viewBox="0 0 13 12" fill="none" xmlns="http://www.w3.org/2000/svg">
<path d="M4.86364 0.545471H2.68182V1.63638H1.59091V2.72729H0.5V6.00002H1.59091V7.09093H2.68182V8.18184H3.77273V9.27274H4.86364V10.3637H5.95455V11.4546H7.04545V10.3637H8.13636V9.27274H9.22727V8.18184H10.3182V7.09093H11.4091V6.00002H12.5V2.72729H11.4091V1.63638H10.3182V0.545471H8.13636V1.63638H7.04545V2.72729H5.95455V1.63638H4.86364V0.545471ZM4.86364 1.63638V2.72729H5.95455V3.8182H7.04545V2.72729H8.13636V1.63638H10.3182V2.72729H11.4091V6.00002H10.3182V7.09093H9.22727V8.18184H8.13636V9.27274H7.04545V10.3637H5.95455V9.27274H4.86364V8.18184H3.77273V7.09093H2.68182V6.00002H1.59091V2.72729H2.68182V1.63638H4.86364Z" fill="#FF0000"/>
</svg>
